<svg width="32" height="32" viewBox="0 0 32 32" fill="none" xmlns="http://www.w3.org/2000/svg">
<path d="M17.3333 6.66671H28M17.3333 12H24M17.3333 20H28M17.3333 25.3334H24M4 6.66671C4 6.31309 4.14048 5.97395 4.39052 5.7239C4.64057 5.47385 4.97971 5.33337 5.33333 5.33337H10.6667C11.0203 5.33337 11.3594 5.47385 11.6095 5.7239C11.8595 5.97395 12 6.31309 12 6.66671V12C12 12.3537 11.8595 12.6928 11.6095 12.9428C11.3594 13.1929 11.0203 13.3334 10.6667 13.3334H5.33333C4.97971 13.3334 4.64057 13.1929 4.39052 12.9428C4.14048 12.6928 4 12.3537 4 12V6.66671ZM4 20C4 19.6464 4.14048 19.3073 4.39052 19.0572C4.64057 18.8072 4.97971 18.6667 5.33333 18.6667H10.6667C11.0203 18.6667 11.3594 18.8072 11.6095 19.0572C11.8595 19.3073 12 19.6464 12 20V25.3334C12 25.687 11.8595 26.0261 11.6095 26.2762C11.3594 26.5262 11.0203 26.6667 10.6667 26.6667H5.33333C4.97971 26.6667 4.64057 26.5262 4.39052 26.2762C4.14048 26.0261 4 25.687 4 25.3334V20Z" stroke="#4B97C0" stroke-width="2" stroke-linecap="round" stroke-linejoin="round"/>
</svg>
