<svg width="32" height="32" viewBox="0 0 32 32" fill="none" xmlns="http://www.w3.org/2000/svg">
<path d="M16 9.33333C17.4145 9.33333 18.771 9.89524 19.7712 10.8954C20.7714 11.8956 21.3333 13.2522 21.3333 14.6667V26.6667C21.3333 27.0203 21.1929 27.3594 20.9428 27.6095C20.6928 27.8595 20.3536 28 20 28H12C11.6464 28 11.3072 27.8595 11.0572 27.6095C10.8071 27.3594 10.6667 27.0203 10.6667 26.6667V14.6667C10.6667 13.2522 11.2286 11.8956 12.2288 10.8954C13.229 9.89524 14.5855 9.33333 16 9.33333ZM16 9.33333V5.33333M12 21.3333H20M16 5.33333L21.3333 6.66667M16 5.33333L21.3333 4M16 5.33333H12C10.9391 5.33333 9.92172 5.75476 9.17157 6.50491C8.42143 7.25505 8 8.27247 8 9.33333" stroke="#4B97C0" stroke-width="2" stroke-linecap="round" stroke-linejoin="round"/>
</svg>
