<svg width="40" height="40" viewBox="0 0 40 40" fill="none" xmlns="http://www.w3.org/2000/svg">
<path d="M15.0003 28.3333V30C15.0003 31.3261 15.5271 32.5979 16.4648 33.5355C17.4025 34.4732 18.6742 35 20.0003 35C21.3264 35 22.5982 34.4732 23.5359 33.5355C24.4735 32.5979 25.0003 31.3261 25.0003 30V28.3333M16.667 8.33333C16.667 7.44928 17.0182 6.60143 17.6433 5.97631C18.2684 5.35119 19.1163 5 20.0003 5C20.8844 5 21.7322 5.35119 22.3573 5.97631C22.9825 6.60143 23.3337 7.44928 23.3337 8.33333C25.2477 9.23838 26.8793 10.6472 28.0537 12.4088C29.2282 14.1705 29.9011 16.2185 30.0003 18.3333V23.3333C30.1258 24.3695 30.4927 25.3618 31.0717 26.2302C31.6506 27.0987 32.4254 27.819 33.3337 28.3333H6.66699C7.57522 27.819 8.35001 27.0987 8.92897 26.2302C9.50793 25.3618 9.8749 24.3695 10.0003 23.3333V18.3333C10.0996 16.2185 10.7725 14.1705 11.9469 12.4088C13.1213 10.6472 14.753 9.23838 16.667 8.33333Z" stroke="#4B97C0" stroke-width="2" stroke-linecap="round" stroke-linejoin="round"/>
</svg>
