<svg width="40" height="40" viewBox="0 0 40 40" fill="none" xmlns="http://www.w3.org/2000/svg">
<path d="M28.3333 28.3333H31.6667C32.5507 28.3333 33.3986 27.9821 34.0237 27.357C34.6488 26.7319 35 25.8841 35 25V18.3333C35 17.4493 34.6488 16.6014 34.0237 15.9763C33.3986 15.3512 32.5507 15 31.6667 15H8.33333C7.44928 15 6.60143 15.3512 5.97631 15.9763C5.35119 16.6014 5 17.4493 5 18.3333V25C5 25.8841 5.35119 26.7319 5.97631 27.357C6.60143 27.9821 7.44928 28.3333 8.33333 28.3333H11.6667M28.3333 15V8.33333C28.3333 7.44928 27.9821 6.60143 27.357 5.97631C26.7319 5.35119 25.8841 5 25 5H15C14.1159 5 13.2681 5.35119 12.643 5.97631C12.0179 6.60143 11.6667 7.44928 11.6667 8.33333V15M11.6667 25C11.6667 24.1159 12.0179 23.2681 12.643 22.643C13.2681 22.0179 14.1159 21.6667 15 21.6667H25C25.8841 21.6667 26.7319 22.0179 27.357 22.643C27.9821 23.2681 28.3333 24.1159 28.3333 25V31.6667C28.3333 32.5507 27.9821 33.3986 27.357 34.0237C26.7319 34.6488 25.8841 35 25 35H15C14.1159 35 13.2681 34.6488 12.643 34.0237C12.0179 33.3986 11.6667 32.5507 11.6667 31.6667V25Z" stroke="#4B97C0" stroke-width="2" stroke-linecap="round" stroke-linejoin="round"/>
</svg>
