<svg width="184" height="70" viewBox="0 0 184 70" fill="none" xmlns="http://www.w3.org/2000/svg">
<g clip-path="url(#clip0_33689_891)">
<path d="M32.4151 64.9734C29.0439 68.3617 24.1909 70 18.6711 70H0V16.5319H18.6711C24.1909 16.5319 29.0439 18.1702 32.4151 21.5585C38.1572 27.3298 37.7868 35.1489 37.7868 42.8564C37.7868 50.5638 38.1572 59.1277 32.4151 64.9362V64.9734ZM26.8953 27.4415C24.6355 24.9468 21.6718 23.8298 17.8561 23.8298H8.076V62.7021H17.8561C21.6718 62.7021 24.6355 61.5851 26.8953 59.0904C29.6737 56 29.7478 50.2287 29.7478 42.8936C29.7478 35.5585 29.6737 30.4947 26.8953 27.4415Z" fill="black"/>
<path d="M69.0535 70H47.5298V16.5319H68.2014C78.0556 16.5319 84.2423 22.1543 84.2423 31.1649C84.2423 40.1755 80.6488 41.0692 77.0554 42.484C81.1675 44.1223 85.0573 48.1064 85.0573 54.883C85.0573 64.7128 78.4261 69.9628 69.0164 69.9628L69.0535 70ZM67.5716 23.8298H55.6429V39.133H67.5716C72.721 39.133 76.2404 36.4149 76.2404 31.4628C76.2404 26.5106 72.721 23.7926 67.5716 23.7926V23.8298ZM68.3126 46.4309H55.6058V62.7021H68.3126C73.9065 62.7021 77.0554 59.2394 77.0554 54.5106C77.0554 49.7819 73.9065 46.3936 68.3126 46.3936V46.4309Z" fill="black"/>
<path d="M96.3192 70V16.5319H104.395V69.9628H96.3192V70Z" fill="black"/>
<path d="M158.026 50.0798C151.247 50.4894 145.283 46.8777 141.911 41.1064C144.653 36.1915 149.765 33.1383 155.1 32.3936C162.398 31.6117 168.844 35.0745 172.474 41.1808C169.807 46.9894 163.954 49.7447 157.989 50.0798M183.958 22.8617V0.744681C183.958 0.409574 183.773 0.148936 183.477 0.037234C183.403 0 183.329 0 183.218 0C182.81 0 182.477 0.335106 182.477 0.744681C182.477 1.15426 182.477 1.34043 182.44 1.6383C181.513 9.23404 170.585 15.1543 168.844 22.5266C168.807 22.75 168.733 22.9734 168.696 23.1968H168.621V0.744681C168.621 0.409574 168.436 0.148936 168.14 0.037234C168.103 0 167.992 0 167.881 0C167.473 0 167.14 0.335106 167.14 0.744681C167.14 1.15426 167.14 1.34043 167.103 1.6383C166.176 9.23404 155.248 15.1543 153.507 22.5266C153.47 22.75 153.433 22.9362 153.396 23.1596H153.359V4.80319C153.359 4.46808 153.173 4.20745 152.877 4.09574C152.803 4.05851 152.692 4.02128 152.581 4.02128C152.173 4.02128 151.84 4.35638 151.84 4.76596C151.84 5.17553 151.84 5.3617 151.803 5.65957C150.876 13.2553 139.948 19.1755 138.207 26.5479C138.059 27.0691 138.022 27.6277 138.022 28.1862V30.9415H122.685V31.4255C122.685 31.4255 137.985 37.4947 137.985 42.3723C137.985 47.25 122.685 53.8404 122.685 53.8404V54.3989H140.17L138.022 70H178.365L174.438 54.3245C184.514 49.0745 183.995 37.6809 183.995 22.8617" fill="#FF0000"/>
<path d="M157.248 33.9947C153.321 33.9947 150.099 37.2341 150.099 41.2553C150.099 45.2766 153.284 48.516 157.248 48.516C161.212 48.516 164.398 45.2766 164.398 41.2553C164.398 37.2341 161.212 33.9947 157.248 33.9947Z" fill="black"/>
</g>
<defs>
<clipPath id="clip0_33689_891">
<rect width="184" height="70" fill="white"/>
</clipPath>
</defs>
</svg>
